<mxfile host="65bd71144e">
    <diagram id="XV0r0SYhwbYhjyHeBfLC" name="PÃ¡gina-1">
        <mxGraphModel dx="784" dy="2463" grid="1" gridSize="10" guides="1" tooltips="1" connect="1" arrows="1" fold="1" page="1" pageScale="1" pageWidth="827" pageHeight="1169" math="0" shadow="0">
            <root>
                <mxCell id="0"/>
                <mxCell id="1" parent="0"/>
                <mxCell id="2" value="&lt;font style=&quot;font-size: 36px ; line-height: 2.6&quot;&gt;Server&lt;/font&gt;" style="shape=folder;fontStyle=1;spacingTop=10;tabWidth=40;tabHeight=14;tabPosition=left;html=1;fontSize=22;strokeColor=default;strokeWidth=2;verticalAlign=top;" vertex="1" parent="1">
                    <mxGeometry x="1024" y="-35" width="960" height="1495" as="geometry"/>
                </mxCell>
                <mxCell id="3" value="UDPServer" style="swimlane;fontStyle=1;align=center;verticalAlign=bottom;childLayout=stackLayout;horizontal=1;startSize=26;horizontalStack=0;resizeParent=1;resizeParentMax=0;resizeLast=0;collapsible=1;marginBottom=0;fontSize=22;strokeColor=#000000;strokeWidth=2;fillColor=#1ba1e2;fontColor=#ffffff;" vertex="1" parent="1">
                    <mxGeometry x="1169" y="80" width="670" height="340" as="geometry"/>
                </mxCell>
                <mxCell id="4" value="- aSocket : DatagramSocket&#10;- despachante : Despachante&#10;- buffer : byte[ ]&#10;- request : DatagramPacket&#10;- reply : DatagramPacket&#10;- mapa : Map&lt;Integer, byte [ ]&gt;" style="text;strokeColor=none;fillColor=none;align=left;verticalAlign=top;spacingLeft=4;spacingRight=4;overflow=hidden;rotatable=0;points=[[0,0.5],[1,0.5]];portConstraint=eastwest;fontSize=22;" vertex="1" parent="3">
                    <mxGeometry y="26" width="670" height="164" as="geometry"/>
                </mxCell>
                <mxCell id="5" value="" style="line;strokeWidth=2;fillColor=none;align=left;verticalAlign=middle;spacingTop=-1;spacingLeft=3;spacingRight=3;rotatable=0;labelPosition=right;points=[];portConstraint=eastwest;fontSize=17;" vertex="1" parent="3">
                    <mxGeometry y="190" width="670" height="8" as="geometry"/>
                </mxCell>
                <mxCell id="6" value="+ main(argrs[ ] : String) : void&#10;+ getRequest : byte [ ]&#10;+ sendResponse(byte [ ] resposta) : void&#10;+ empacoteResposta(Message message, ByteString args) : byte[ ]&#10;+ desempacotaRequisicao(byte[ ] request) : Message" style="text;strokeColor=none;fillColor=none;align=left;verticalAlign=top;spacingLeft=4;spacingRight=4;overflow=hidden;rotatable=0;points=[[0,0.5],[1,0.5]];portConstraint=eastwest;fontSize=22;strokeWidth=2;" vertex="1" parent="3">
                    <mxGeometry y="198" width="670" height="142" as="geometry"/>
                </mxCell>
                <mxCell id="7" style="edgeStyle=none;html=1;exitX=0.5;exitY=0;exitDx=0;exitDy=0;entryX=0.5;entryY=1;entryDx=0;entryDy=0;fontSize=22;endArrow=none;endFill=0;strokeWidth=2;" edge="1" parent="1" source="8" target="3">
                    <mxGeometry relative="1" as="geometry"/>
                </mxCell>
                <mxCell id="8" value="Despachante" style="swimlane;fontStyle=1;align=center;verticalAlign=bottom;childLayout=stackLayout;horizontal=1;startSize=26;horizontalStack=0;resizeParent=1;resizeParentMax=0;resizeLast=0;collapsible=1;marginBottom=0;fontSize=22;strokeColor=#000000;strokeWidth=2;fillColor=#1ba1e2;fontColor=#ffffff;" vertex="1" parent="1">
                    <mxGeometry x="1169" y="540" width="670" height="130" as="geometry"/>
                </mxCell>
                <mxCell id="9" value="- uniqueInstance : Despachante" style="text;strokeColor=none;fillColor=none;align=left;verticalAlign=top;spacingLeft=4;spacingRight=4;overflow=hidden;rotatable=0;points=[[0,0.5],[1,0.5]];portConstraint=eastwest;fontSize=22;" vertex="1" parent="8">
                    <mxGeometry y="26" width="670" height="34" as="geometry"/>
                </mxCell>
                <mxCell id="10" value="" style="line;strokeWidth=2;fillColor=none;align=left;verticalAlign=middle;spacingTop=-1;spacingLeft=3;spacingRight=3;rotatable=0;labelPosition=right;points=[];portConstraint=eastwest;fontSize=17;" vertex="1" parent="8">
                    <mxGeometry y="60" width="670" height="8" as="geometry"/>
                </mxCell>
                <mxCell id="11" value="+ getInstance() : Despachante&#10;+ invoke (Message request) : ByteString" style="text;strokeColor=none;fillColor=none;align=left;verticalAlign=top;spacingLeft=4;spacingRight=4;overflow=hidden;rotatable=0;points=[[0,0.5],[1,0.5]];portConstraint=eastwest;fontSize=22;strokeWidth=2;" vertex="1" parent="8">
                    <mxGeometry y="68" width="670" height="62" as="geometry"/>
                </mxCell>
                <mxCell id="12" style="edgeStyle=none;html=1;exitX=0.5;exitY=0;exitDx=0;exitDy=0;entryX=0.5;entryY=1;entryDx=0;entryDy=0;fontSize=22;endArrow=none;endFill=0;strokeWidth=2;" edge="1" parent="1" source="13" target="8">
                    <mxGeometry relative="1" as="geometry"/>
                </mxCell>
                <mxCell id="13" value="AgendaEsqueleto" style="swimlane;fontStyle=1;align=center;verticalAlign=bottom;childLayout=stackLayout;horizontal=1;startSize=26;horizontalStack=0;resizeParent=1;resizeParentMax=0;resizeLast=0;collapsible=1;marginBottom=0;fontSize=22;strokeColor=#000000;strokeWidth=2;fillColor=#1ba1e2;fontColor=#ffffff;" vertex="1" parent="1">
                    <mxGeometry x="1169" y="770" width="670" height="260" as="geometry"/>
                </mxCell>
                <mxCell id="14" value="- agenda : SistemaAgenda" style="text;strokeColor=none;fillColor=none;align=left;verticalAlign=top;spacingLeft=4;spacingRight=4;overflow=hidden;rotatable=0;points=[[0,0.5],[1,0.5]];portConstraint=eastwest;fontSize=22;" vertex="1" parent="13">
                    <mxGeometry y="26" width="670" height="34" as="geometry"/>
                </mxCell>
                <mxCell id="15" value="" style="line;strokeWidth=2;fillColor=none;align=left;verticalAlign=middle;spacingTop=-1;spacingLeft=3;spacingRight=3;rotatable=0;labelPosition=right;points=[];portConstraint=eastwest;fontSize=17;" vertex="1" parent="13">
                    <mxGeometry y="60" width="670" height="8" as="geometry"/>
                </mxCell>
                <mxCell id="16" value="+ AgendaEsqueleto()&#10;+ adicionarContato(ByteString args) : ByteString&#10;+ listarContatos(ByteString args) : ByteString&#10;+ procurarContato(ByteString args) : ByteString&#10;+ editarContato(ByteString args) : ByteString&#10;+ removerContato(ByteString args) : ByteString&#10;+ limparAgenda (ByteString args) : ByteString&#10;" style="text;strokeColor=none;fillColor=none;align=left;verticalAlign=top;spacingLeft=4;spacingRight=4;overflow=hidden;rotatable=0;points=[[0,0.5],[1,0.5]];portConstraint=eastwest;fontSize=22;strokeWidth=2;" vertex="1" parent="13">
                    <mxGeometry y="68" width="670" height="192" as="geometry"/>
                </mxCell>
                <mxCell id="17" style="edgeStyle=none;html=1;exitX=0.5;exitY=0;exitDx=0;exitDy=0;entryX=0.5;entryY=1;entryDx=0;entryDy=0;fontSize=22;endArrow=none;endFill=0;strokeWidth=2;" edge="1" parent="1" source="18" target="13">
                    <mxGeometry relative="1" as="geometry"/>
                </mxCell>
                <mxCell id="18" value="SistemaAgenda" style="swimlane;fontStyle=1;align=center;verticalAlign=bottom;childLayout=stackLayout;horizontal=1;startSize=26;horizontalStack=0;resizeParent=1;resizeParentMax=0;resizeLast=0;collapsible=1;marginBottom=0;fontSize=22;strokeColor=#000000;strokeWidth=2;fillColor=#1ba1e2;fontColor=#ffffff;" vertex="1" parent="1">
                    <mxGeometry x="1169" y="1130" width="670" height="290" as="geometry"/>
                </mxCell>
                <mxCell id="19" value="- FILENAME = &quot;agenda.txt&quot; : String" style="text;strokeColor=none;fillColor=none;align=left;verticalAlign=top;spacingLeft=4;spacingRight=4;overflow=hidden;rotatable=0;points=[[0,0.5],[1,0.5]];portConstraint=eastwest;fontSize=22;fontStyle=4" vertex="1" parent="18">
                    <mxGeometry y="26" width="670" height="34" as="geometry"/>
                </mxCell>
                <mxCell id="20" value="" style="line;strokeWidth=2;fillColor=none;align=left;verticalAlign=middle;spacingTop=-1;spacingLeft=3;spacingRight=3;rotatable=0;labelPosition=right;points=[];portConstraint=eastwest;fontSize=17;" vertex="1" parent="18">
                    <mxGeometry y="60" width="670" height="8" as="geometry"/>
                </mxCell>
                <mxCell id="21" value="- lerArquivoEntrada(agenda : Agenda.Builder) : void&#10;- escreverArquivoSaida(agenda : Agenda.Builder) : void&#10;+ adicionarContato(contato : Contato) : boolean&#10;+ listarContatos() : Agenda&#10;+ procurarContatos(contato : Contato) : Agenda&#10;+ removerContato(contato : Contato) : Agenda&#10;+ limparAgenda() : boolean&#10;+ editarContato(Contato contato) : boolean" style="text;strokeColor=none;fillColor=none;align=left;verticalAlign=top;spacingLeft=4;spacingRight=4;overflow=hidden;rotatable=0;points=[[0,0.5],[1,0.5]];portConstraint=eastwest;fontSize=22;strokeWidth=2;" vertex="1" parent="18">
                    <mxGeometry y="68" width="670" height="222" as="geometry"/>
                </mxCell>
            </root>
        </mxGraphModel>
    </diagram>
</mxfile>